<?xml version="1.0" encoding="UTF-8"?>
<svg id="_图层_1" data-name="图层 1" xmlns="http://www.w3.org/2000/svg" viewBox="0 0 1024 1024">
  <defs>
    <style>
      .cls-1 {
        fill: #45413c;
        isolation: isolate;
        opacity: .15;
      }

      .cls-1, .cls-2, .cls-3, .cls-4, .cls-5, .cls-6, .cls-7, .cls-8 {
        stroke-width: 0px;
      }

      .cls-2 {
        fill: #656769;
      }

      .cls-3 {
        fill: #87898c;
      }

      .cls-4 {
        fill: #c0dceb;
      }

      .cls-5 {
        fill: #daedf7;
      }

      .cls-9, .cls-10 {
        stroke-linecap: round;
        stroke-linejoin: round;
      }

      .cls-9, .cls-10, .cls-11 {
        stroke: #45413c;
        stroke-width: .25px;
      }

      .cls-9, .cls-11 {
        fill: none;
      }

      .cls-6 {
        fill: #f0d5a8;
      }

      .cls-10 {
        fill: #6dd627;
      }

      .cls-11 {
        stroke-miterlimit: 1;
      }

      .cls-7 {
        fill: #debb7e;
      }

      .cls-8 {
        fill: #e8f4fa;
      }
    </style>
  </defs>
  <path class="cls-1" d="M944.84,803.83s0,0,0-.01c-.04-19.92-193.89-36.07-432.98-36.07-239.09,0-432.87,16.16-432.83,36.08v.02c.06,19.92,193.93,36.07,433.02,36.07,239.09,0,432.86-16.16,432.8-36.08"/>
  <path class="cls-2" d="M626.68,631c0-92.87,75.28-168.15,168.15-168.15,92.87,0,168.15,75.28,168.15,168.15s-75.28,168.15-168.15,168.15-168.15-75.28-168.15-168.15"/>
  <path class="cls-3" d="M794.83,510.95c83.5.14,154.28,61.47,166.31,144.1,1.14-7.97,1.75-16,1.83-24.05,0-92.87-75.28-168.15-168.15-168.15-92.87,0-168.15,75.28-168.15,168.15.08,8.05.7,16.08,1.83,24.05,12.03-82.63,82.81-143.96,166.31-144.1"/>
  <path class="cls-9" d="M626.68,631c0-92.87,75.28-168.15,168.15-168.15,92.87,0,168.15,75.28,168.15,168.15s-75.28,168.15-168.15,168.15-168.15-75.28-168.15-168.15"/>
  <path class="cls-2" d="M61.09,631c0-92.87,75.28-168.15,168.15-168.15,92.87,0,168.15,75.28,168.15,168.15s-75.28,168.15-168.15,168.15-168.15-75.28-168.15-168.15"/>
  <path class="cls-3" d="M229.24,510.95c83.5.14,154.28,61.47,166.31,144.1,1.14-7.97,1.75-16,1.83-24.05,0-92.87-75.28-168.15-168.15-168.15-92.87,0-168.15,75.28-168.15,168.15.08,8.05.7,16.08,1.83,24.05,12.03-82.63,82.81-143.96,166.31-144.1"/>
  <path class="cls-9" d="M61.09,631c0-92.87,75.28-168.15,168.15-168.15,92.87,0,168.15,75.28,168.15,168.15s-75.28,168.15-168.15,168.15-168.15-75.28-168.15-168.15"/>
  <path class="cls-8" d="M121.21,629.98c0-59.66,48.36-108.02,108.02-108.02h0c59.66,0,108.02,48.36,108.02,108.02,0,59.66-48.36,108.02-108.02,108.02-59.66,0-108.02-48.36-108.02-108.02"/>
  <path class="cls-4" d="M229.24,569.85c50.37.16,93.98,35.06,105.17,84.18,1.9-7.87,2.86-15.95,2.85-24.05,0-59.66-48.36-108.02-108.02-108.02s-108.02,48.36-108.02,108.02c0,8.1.95,16.18,2.85,24.05,11.19-49.12,54.79-84.01,105.17-84.18"/>
  <path class="cls-9" d="M121.21,629.98c0-59.66,48.36-108.02,108.02-108.02h0c59.66,0,108.02,48.36,108.02,108.02,0,59.66-48.36,108.02-108.02,108.02-59.66,0-108.02-48.36-108.02-108.02M121.21,631h216.05M174.82,536.63l108.02,187.1M283.66,536.63l-108.02,187.1"/>
  <path class="cls-8" d="M686.4,631c0-59.66,48.36-108.02,108.02-108.02h0c59.66,0,108.02,48.36,108.02,108.02,0,59.66-48.36,108.02-108.02,108.02-59.66,0-108.02-48.36-108.02-108.02"/>
  <path class="cls-4" d="M794.42,569.85c50.57.11,94.33,35.23,105.37,84.58,1.72-7.7,2.61-15.55,2.65-23.44,0-59.66-48.36-108.02-108.02-108.02-59.66,0-108.02,48.36-108.03,108.02.04,7.89.93,15.74,2.65,23.44,11.05-49.35,54.8-84.47,105.37-84.58"/>
  <path class="cls-9" d="M686.4,631c0-59.66,48.36-108.02,108.02-108.02h0c59.66,0,108.02,48.36,108.02,108.02,0,59.66-48.36,108.02-108.02,108.02-59.66,0-108.02-48.36-108.02-108.02M686.4,631h216.05M740.41,537.44l108.02,187.1M848.43,537.44l-108.02,187.1"/>
  <path class="cls-10" d="M327.48,288.18v62.57s-120.25,270.46-120.25,270.46c-1.38,3.09-2.09,6.44-2.08,9.82.02,13.28,10.81,24.03,24.09,24.01h245.6c7.4-.15,14.35-3.59,18.95-9.38l172.22-221.14c1.59-1.82,3.7-3.12,6.04-3.7,6.33-1.59,12.75,2.26,14.34,8.59,17.46,75.7,47.28,148,88.25,214.01.8,1.77,1.82,3.43,3.02,4.96,8.24,10.42,23.36,12.19,33.78,3.96,10.42-8.24,12.19-23.36,3.96-33.78-57.84-92.51-91.54-198.04-98.04-306.95l-3.26-56.46c-.01-.21-.02-.42-.02-.63,0-6.75,5.49-12.22,12.24-12.21h99.05c13.27,0,24.03-10.77,24.04-24.04,0-13.28-10.76-24.06-24.04-24.06h-137.58c-.49,0-.98.01-1.47.04-13.26.79-23.37,12.18-22.58,25.43l5.71,94.57c.2,5.91,1.43,11.62,1.43,17.53h-295.33v-43.62s-48.1,0-48.1,0ZM395.96,396.81c-.69-1.55-1.04-3.22-1.04-4.91.01-6.64,5.4-12.02,12.05-12h207.08c2.67-.01,5.27.87,7.39,2.5,5.26,4.05,6.24,11.6,2.19,16.86l-144.1,185.27-83.56-187.71M266.33,606.94l85.2-191.79,85.2,191.79h-170.39Z"/>
  <path class="cls-5" d="M412.67,629.98c0-33.77,27.38-61.14,61.14-61.14s61.14,27.38,61.14,61.14-27.38,61.14-61.14,61.14c-33.77,0-61.14-27.38-61.14-61.14"/>
  <path class="cls-8" d="M473.82,606.94c26.37.11,49.71,17.11,57.88,42.19,2.01-6.19,3.11-12.65,3.26-19.16,0-33.77-27.38-61.14-61.14-61.14s-61.14,27.38-61.14,61.14c.15,6.51,1.25,12.96,3.26,19.16,8.18-25.08,31.51-42.08,57.88-42.19"/>
  <path class="cls-9" d="M534.96,629.98c0-33.77-27.38-61.14-61.14-61.14s-61.14,27.38-61.14,61.14c0,33.77,27.38,61.14,61.14,61.14,33.77,0,61.14-27.38,61.14-61.14"/>
  <path class="cls-7" d="M459.75,288.18c28.53,0,48.51-65.63-36.08-59.72-46.06,2.65-110.26-24.46-156.33-24.46s-43.62,84.18,0,84.18h192.4"/>
  <path class="cls-6" d="M423.68,256.58c37.71-1.43,54.42,4.69,59.31,12.23,5.91-19.16-5.5-44.23-59.31-40.76-46.06,3.06-110.26-24.05-156.33-24.05-27.72,0-37.71,30.37-32,54.62,6.79-10.84,19.33-16.67,32-14.88,46.06,0,110.26,14.27,156.33,12.84M267.35,288.18c-2.67-.11-5.33-.45-7.95-1.02,2.6.67,5.27,1.01,7.95,1.02"/>
  <path class="cls-11" d="M423.68,228.46c-46.06,2.65-110.26-24.46-156.33-24.46s-43.62,84.18,0,84.18h192.4c28.53,0,48.51-65.63-36.08-59.72Z"/>
  <path class="cls-7" d="M806.44,186.06h0c-13.28,0-24.05,10.77-24.05,24.05v11.21s0,0,0,0c0,13.28,10.77,24.05,24.05,24.05h45.25c13.46-.07,25.97,6.88,33.02,18.34,11.14,18.12,5.48,41.85-12.64,52.99l-18.55,11.01c-14.91,9.12-19.61,28.6-10.5,43.51,9.12,14.91,28.6,19.61,43.51,10.5l16.92-10.6c28.57-18.32,45.96-49.82,46.24-83.75.46-55.49-44.15-100.85-99.64-101.31h-43.62"/>
  <path class="cls-6" d="M806.44,186.06c-13.12.22-23.64,10.93-23.64,24.05v13.04c0,4.23,1.12,8.38,3.26,12.03,4.19-7.33,11.94-11.91,20.38-12.03h43.62c48.3-.1,89.86,34.11,99.05,81.53,1.07-5.92,1.62-11.92,1.63-17.94h0c0-55.61-45.08-100.69-100.69-100.69h-43.62"/>
  <path class="cls-9" d="M806.44,186.06h0c-13.28,0-24.05,10.77-24.05,24.05v11.21s0,0,0,0c0,13.28,10.77,24.05,24.05,24.05h45.25c13.46-.07,25.97,6.88,33.02,18.34,11.14,18.12,5.48,41.85-12.64,52.99l-18.55,11.01c-14.91,9.12-19.61,28.6-10.5,43.51,9.12,14.91,28.6,19.61,43.51,10.5l16.92-10.6c28.57-18.32,45.96-49.82,46.24-83.75.46-55.49-44.15-100.85-99.64-101.31h-43.62"/>
</svg>