<?xml version="1.0" encoding="UTF-8"?>
<svg id="_图层_1" data-name="图层 1" xmlns="http://www.w3.org/2000/svg" viewBox="0 0 1024 1024">
  <defs>
    <style>
      .cls-1 {
        fill: #ffe115;
      }

      .cls-1, .cls-2, .cls-3, .cls-4, .cls-5, .cls-6, .cls-7, .cls-8, .cls-9 {
        stroke-width: 0px;
      }

      .cls-2 {
        fill: #e40000;
      }

      .cls-3 {
        fill: #004874;
      }

      .cls-4 {
        fill: #f1ff94;
      }

      .cls-5 {
        fill: #ff7557;
      }

      .cls-6 {
        fill: #00ad46;
      }

      .cls-7 {
        fill: #0cb6ff;
      }

      .cls-8 {
        fill: #04d659;
      }

      .cls-9 {
        fill: #713fff;
      }
    </style>
  </defs>
  <path class="cls-9" d="M90.89,718.98l416.67-204.79c2.63-1.23,4-4.17,3.24-6.98-9.38-32.53-42.07-49.2-48.58-71.14-19.32-64.98-18.5-97.6-35.31-101.52-1.19-.24-2.42-.06-3.49.51l-150.52,73.98c-86.58,42.51-146.57,182.63-190.81,302.1-1.19,3.3.52,6.94,3.82,8.13,1.63.59,3.43.48,4.99-.29"/>
  <path class="cls-6" d="M718.95,933.12l-204.78-416.69c-1.23-2.63-4.18-4-6.99-3.25-32.54,9.38-49.2,42.07-71.14,48.58-64.99,19.32-97.6,18.5-101.53,35.31-.23,1.18-.05,2.41.51,3.48l73.99,150.52c42.51,86.58,182.63,146.57,302.1,190.81,3.31,1.17,6.94-.55,8.11-3.86.57-1.61.47-3.37-.28-4.91"/>
  <path class="cls-8" d="M409.01,751.11c-23.25-47.3-15.38-121.76,102.97-239.08-128.34,10.2-190.24,61.5-177.77,86.91l74.8,152.18Z"/>
  <path class="cls-1" d="M933.09,305.06l-416.66,204.79c-2.63,1.23-4,4.17-3.24,6.97,9.38,32.54,42.05,49.19,48.58,71.14,19.32,64.99,18.51,97.6,35.31,101.53,1.19.24,2.42.06,3.49-.51l150.52-73.99c86.58-42.51,146.57-182.63,190.81-302.09,1.18-3.31-.55-6.95-3.86-8.13-1.62-.58-3.41-.47-4.96.29"/>
  <path class="cls-4" d="M751.14,615.02c-47.3,23.25-121.77,15.38-239.09-102.97,10.2,128.34,61.5,190.25,86.91,177.77l152.19-74.8Z"/>
  <path class="cls-2" d="M305.01,90.91l204.79,416.66c1.23,2.63,4.17,4,6.98,3.24,32.54-9.38,49.2-42.07,71.14-48.58,64.99-19.32,97.6-18.5,101.53-35.31.23-1.19.05-2.42-.51-3.49l-73.99-150.52c-42.51-86.58-182.63-146.57-302.1-190.81-3.3-1.19-6.94.51-8.13,3.81-.59,1.64-.49,3.45.29,5.01"/>
  <path class="cls-5" d="M614.99,272.95c23.25,47.3,15.38,121.76-102.97,239.09,128.34-10.2,190.25-61.51,177.77-86.91l-74.79-152.19Z"/>
  <path class="cls-7" d="M272.9,409.06c47.3-23.25,121.77-15.38,239.09,102.97-10.2-128.34-61.5-190.25-86.91-177.77l-152.19,74.8Z"/>
  <circle class="cls-3" cx="512.05" cy="511.99" r="14.49"/>
</svg>